# xmcd CD database file
#
# Track frame offsets:
#	150
#	12667
#	23935
#	41146
#	55246
#	73094
#	86764
#	103719
#	116186
#	132610
#
# Disc length: 1929 seconds
#
# Revision: 0
# Processed by: cddbd v1.4PL0 Copyright (c) Steve Scherf et al.
# Submitted via: CDex 1.50Beta7
#
DISCID=9707870a
DTITLE=Amos Milburn - The Essential Recordings
DYEAR=2001
DGENRE=Blues
TTITLE0=Chicken Shack Boogie
TTITLE1=Bad, Bad Whiskey
TTITLE2=Baby, Baby All the Time
TTITLE3=One Scotch, One Bourbon, One Beer
TTITLE4=Bewildered
TTITLE5=Greyhound
TTITLE6=Evening Shadows Coming Down
TTITLE7=Trouble in Mind
TTITLE8=One Hour Past Midnight
TTITLE9=See See Rider (a.k.a. C.C. Rider)
EXTD=YEAR: 2001
EXTT0=
EXTT1=
EXTT2=
EXTT3=
EXTT4=
EXTT5=
EXTT6=
EXTT7=
EXTT8=
EXTT9=
PLAYORDER=
